Coordinates
version=1
nRows=14
nColumns=40
inDegrees=yes

Units are S.I. units (second, meters, Newtons, ...)
If the header above contains a line with 'inDegrees', this indicates whether rotational values are in degrees (yes) or radians (no).

endheader
time	pelvis_tilt	pelvis_list	pelvis_rotation	pelvis_tx	pelvis_ty	pelvis_tz	hip_flexion_r	hip_adduction_r	hip_rotation_r	knee_angle_r	knee_angle_r_beta	ankle_angle_r	subtalar_angle_r	mtp_angle_r	hip_flexion_l	hip_adduction_l	hip_rotation_l	knee_angle_l	knee_angle_l_beta	ankle_angle_l	subtalar_angle_l	mtp_angle_l	lumbar_extension	lumbar_bending	lumbar_rotation	arm_flex_r	arm_add_r	arm_rot_r	elbow_flex_r	pro_sup_r	wrist_flex_r	wrist_dev_r	arm_flex_l	arm_add_l	arm_rot_l	elbow_flex_l	pro_sup_l	wrist_flex_l	wrist_dev_l
      0.56000000	     -4.41166656	     -1.70857939	     -8.49877768	      0.23596469	      0.89344150	      0.23834979	    -18.27784594	     -0.80284005	    -11.02916312	      9.53518124	      0.16642031	     -0.12222992	      9.12952863	      0.00000000	     28.23795000	     -9.03723798	    -30.20230158	      4.55452225	      0.07949141	     -5.14549444	     17.26766249	      0.00000000	     11.47210167	      0.85962328	      4.85043149	     44.60879731	    -15.97814175	     44.60879731	     75.09017694	     44.98551707	      0.00000000	      0.00000000	     44.60879731	    -15.97814175	     44.60879731	     75.09017694	     44.98551707	      0.00000000	      0.00000000
      0.56500000	     -4.27506469	     -1.41443117	     -8.61255696	      0.24426755	      0.89318239	      0.23761947	    -18.62030563	     -1.36372861	    -10.91071923	      9.92589170	      0.17323949	     -1.00812917	      8.86533875	      0.00000000	     27.98454944	     -8.77366476	    -30.19580827	      5.16377508	      0.09012488	     -5.37634210	     16.49720860	      0.00000000	     11.47587817	      0.49162400	      5.09476161	     44.60896719	    -15.97743959	     44.60896719	     75.09005039	     44.98557355	      0.00000000	      0.00000000	     44.60896719	    -15.97743959	     44.60896719	     75.09005039	     44.98557355	      0.00000000	      0.00000000
      0.57000000	     -4.08253168	     -1.04907152	     -8.75312112	      0.25269027	      0.89305912	      0.23695618	    -18.99450717	     -1.99932929	    -10.74123080	     10.34744504	      0.18059699	     -1.95481520	      8.39366048	      0.00000000	     27.63823270	     -8.43652357	    -30.22915989	      5.76984494	      0.10070279	     -5.68341529	     15.49327210	      0.00000000	     11.45725171	      0.06259415	      5.39712272	     44.60916307	    -15.97663022	     44.60916307	     75.08990462	     44.98563844	      0.00000000	      0.00000000	     44.60916307	    -15.97663022	     44.60916307	     75.08990462	     44.98563844	      0.00000000	      0.00000000
      0.57500000	     -3.81010513	     -0.70027162	     -9.00827576	      0.26096819	      0.89330946	      0.23659839	    -19.52562645	     -2.57408319	    -10.02635959	     10.51851890	      0.18358279	     -3.15328785	      7.21439795	      0.00000000	     26.96498071	     -8.00608224	    -29.73723533	      5.83970809	      0.10192213	     -6.43674074	     13.82745178	      0.00000000	     11.29066183	     -0.22367341	      6.11332890	     44.61044245	    -15.97134975	     44.61044245	     75.08895629	     44.98605615	      0.00000000	      0.00000000	     44.61044245	    -15.97134975	     44.61044245	     75.08895629	     44.98605615	      0.00000000	      0.00000000
      0.58000000	     -3.62389281	     -0.34077995	     -9.08908550	      0.26942810	      0.89333459	      0.23580807	    -19.82575656	     -3.19222410	     -9.92297533	     11.01847262	      0.19230863	     -4.28747997	      6.70100566	      0.00000000	     26.66553374	     -7.67496782	    -29.75648951	      6.56542746	      0.11458833	     -6.84782934	     12.95183094	      0.00000000	     11.27854888	     -0.63954997	      6.40582554	     44.61070903	    -15.97025105	     44.61070903	     75.08875962	     44.98614176	      0.00000000	      0.00000000	     44.61070903	    -15.97025105	     44.61070903	     75.08875962	     44.98614176	      0.00000000	      0.00000000
      0.58500000	     -3.43372229	      0.01927807	     -9.17291605	      0.27793436	      0.89346389	      0.23503940	    -20.09696624	     -3.80439364	     -9.80295189	     11.55276017	      0.20163370	     -5.52258527	      6.11523214	      0.00000000	     26.34040133	     -7.34430826	    -29.74615082	      7.26680020	      0.12682959	     -7.34491730	     12.08310172	      0.00000000	     11.26264902	     -1.06635878	      6.69534617	     44.61089699	    -15.96947664	     44.61089699	     75.08862113	     44.98620185	      0.00000000	      0.00000000	     44.61089699	    -15.96947664	     44.61089699	     75.08862113	     44.98620185	      0.00000000	      0.00000000
      0.59000000	     -3.22264938	      0.38280748	     -9.33299962	      0.28626612	      0.89386315	      0.23448819	    -20.41471271	     -4.35206593	     -9.16298284	     11.94900744	      0.20854952	     -6.94851179	      4.61220682	      0.00000000	     25.83913752	     -6.93153363	    -29.36184612	      7.59010101	      0.13247225	     -8.11758216	     10.69877693	      0.00000000	     11.19374333	     -1.44610964	      7.20191642	     44.61168220	    -15.96624379	     44.61168220	     75.08804399	     44.98645061	      0.00000000	      0.00000000	     44.61168220	    -15.96624379	     44.61168220	     75.08804399	     44.98645061	      0.00000000	      0.00000000
      0.59500000	     -3.00662467	      0.71465965	     -9.31993234	      0.29477651	      0.89420013	      0.23352689	    -20.65155401	     -4.90845556	     -9.14853537	     12.55002069	      0.21903918	     -8.43257615	      4.02076038	      0.00000000	     25.52659086	     -6.59933400	    -29.30975331	      8.36181188	      0.14594115	     -8.64070344	      9.94243320	      0.00000000	     11.13511494	     -1.81527415	      7.47205941	     44.61190043	    -15.96534616	     44.61190043	     75.08788411	     44.98651896	      0.00000000	      0.00000000	     44.61190043	    -15.96534616	     44.61190043	     75.08788411	     44.98651896	      0.00000000	      0.00000000
      0.60000000	     -2.80319670	      1.08506335	     -9.30161034	      0.30326957	      0.89463912	      0.23259003	    -20.82139061	     -5.48070451	     -9.06722923	     13.22506868	      0.23082099	     -9.96902737	      3.07623610	      0.00000000	     25.20391150	     -6.21661590	    -29.19826355	      9.08411086	      0.15854764	     -9.17865108	      9.12671462	      0.00000000	     11.10353528	     -2.22262234	      7.76469802	     44.61213713	    -15.96437294	     44.61213713	     75.08771093	     44.98659275	      0.00000000	      0.00000000	     44.61213713	    -15.96437294	     44.61213713	     75.08771093	     44.98659275	      0.00000000	      0.00000000
      0.60500000	     -2.64320170	      1.30198907	     -9.32458446	      0.31153226	      0.89530342	      0.23179332	    -20.98560153	     -5.79461624	     -8.44284055	     13.73357527	      0.23969611	    -11.84267317	      1.29866785	      0.00000000	     24.81240183	     -5.92969336	    -28.66107111	      9.52169515	      0.16618493	     -9.90475887	      7.94402314	      0.00000000	     11.04532369	     -2.45037707	      8.14585176	     44.61309493	    -15.96043833	     44.61309493	     75.08701232	     44.98688796	      0.00000000	      0.00000000	     44.61309493	    -15.96043833	     44.61309493	     75.08701232	     44.98688796	      0.00000000	      0.00000000
      0.61000000	     -2.42213411	      1.65462005	     -9.20152941	      0.32004430	      0.89589660	      0.23067568	    -21.08566417	     -6.31911556	     -8.52169391	     14.54509254	      0.25385975	    -13.50509698	      0.38575703	      0.00000000	     24.50076377	     -5.53334328	    -28.50351320	     10.29379598	      0.17966063	    -10.32836815	      7.32637178	      0.00000000	     10.97914570	     -2.82745862	      8.39099460	     44.61340035	    -15.95918512	     44.61340035	     75.08679043	     44.98698080	      0.00000000	      0.00000000	     44.61340035	    -15.95918512	     44.61340035	     75.08679043	     44.98698080	      0.00000000	      0.00000000
      0.61500000	     -2.21707533	      1.97817542	     -9.07866921	      0.32853195	      0.89657882	      0.22954428	    -21.09501778	     -6.80927575	     -8.56633250	     15.46477353	      0.26991122	    -15.25228118	     -0.60261805	      0.00000000	     24.17474074	     -5.15390532	    -28.30654835	     11.01326829	      0.19221779	    -10.71815920	      6.70948290	      0.00000000	     10.92820596	     -3.18134631	      8.59298892	     44.61362835	    -15.95825006	     44.61362835	     75.08662505	     44.98704972	      0.00000000	      0.00000000	     44.61362835	    -15.95825006	     44.61362835	     75.08662505	     44.98704972	      0.00000000	      0.00000000
      0.62000000	     -2.11481870	      2.28979789	     -8.87434120	      0.33691325	      0.89720484	      0.22833774	    -20.95218129	     -7.19973059	     -8.51555893	     16.47723391	      0.28758198	    -17.05205289	     -2.26286485	      0.00000000	     23.94503235	     -4.73042745	    -27.86263992	     11.63040465	      0.20298885	    -11.13285288	      5.95287525	      0.00000000	     10.96386993	     -3.51345832	      8.77422628	     44.61406200	    -15.95647244	     44.61406200	     75.08631106	     44.98717994	      0.00000000	      0.00000000	     44.61406200	    -15.95647244	     44.61406200	     75.08631106	     44.98717994	      0.00000000	      0.00000000
      0.62500000	     -1.98095812	      2.40106885	     -8.68568811	      0.34512759	      0.89804862	      0.22699561	    -20.84083781	     -7.39015814	     -8.27714971	     17.40904033	      0.30384507	    -19.04793651	     -3.64458764	      0.00000000	     23.63336495	     -4.46187536	    -27.15828231	     12.18237880	      0.21262262	    -11.48525068	      4.99609027	      0.00000000	     10.89898078	     -3.67542364	      8.76073000	     44.61530225	    -15.95139567	     44.61530225	     75.08541744	     44.98754586	      0.00000000	      0.00000000	     44.61530225	    -15.95139567	     44.61530225	     75.08541744	     44.98754586	      0.00000000	      0.00000000
